<?xml version="1.0" encoding="UTF-8" standalone="no"?>
<svg
   xmlns:dc="http://purl.org/dc/elements/1.1/"
   xmlns:cc="http://creativecommons.org/ns#"
   xmlns:rdf="http://www.w3.org/1999/02/22-rdf-syntax-ns#"
   xmlns:svg="http://www.w3.org/2000/svg"
   xmlns="http://www.w3.org/2000/svg"
   viewBox="0 0 1000 1000"
   version="1.1"
   id="svg11">
  <metadata
     id="metadata17">
    <rdf:RDF>
      <cc:Work
         rdf:about="">
        <dc:format>image/svg+xml</dc:format>
        <dc:type
           rdf:resource="http://purl.org/dc/dcmitype/StillImage" />
        <dc:title></dc:title>
      </cc:Work>
    </rdf:RDF>
  </metadata>
  <defs
     id="defs15" />
  <g
     id="Layer_2"
     data-name="Layer 2">
    <g
       id="Layer_1-2"
       data-name="Layer 1">
      <path
         id="SVGID"
         d="M500,0c276.1,0,500,223.9,500,500s-223.9,500-500,500S0,776.1,0,500,223.9,0,500,0Z"
         style="fill:#0ea5e9;fill-rule:evenodd;fill-opacity:1" />
      <path
         id="SVGID-2"
         data-name="SVGID"
         d="M496,825a67,67,0,1,1,67-67,67,67,0,0,1-67,67Z"
         style="fill:#fff" />
      <path
         id="SVGID-3"
         data-name="SVGID"
         d="M496,363a67,67,0,1,1,67-67,67,67,0,0,1-67,67Z"
         style="fill:#fff" />
      <polygon
         id="SVGID-4"
         data-name="SVGID"
         points="222 646 222 553 770 553 770 646 222 646"
         style="fill:#fff" />
      <path
         id="SVGID-5"
         data-name="SVGID"
         d="M496,507c-156.3,0-283.5-124-288.8-279h99.1c5.2,100.3,88.2,180,189.7,180s184.5-79.7,189.7-180h99.1C779.5,383,652.3,507,496,507Z"
         style="fill:#fff" />
    </g>
  </g>
</svg>
